<svg width="909" height="637" viewBox="0 0 909 637" fill="none" xmlns="http://www.w3.org/2000/svg">
<path d="M66 367.5H119M119 367.5L231 381.5M119 367.5L112 329.5L144.5 275.5M119 367.5L139 423.5M231 381.5L317.5 423.5M231 381.5L270.5 275.5L259 212.5M317.5 423.5L398 398.5M317.5 423.5V465.5L366 509.5L340.5 565.5M398 398.5L454 303.5M398 398.5L441 453.498M454 303.5L582.5 261.5M454 303.5L380.5 261.5M454 303.5V250.5M582.5 261.5L610.5 345.5L568.5 398.5L602.977 453.498M582.5 261.5L671.5 298.5M582.5 261.5C582.5 257.9 630.167 185 654 149L757 105.5M582.5 261.5L529.5 212.5M688.5 485L646.5 465.5H610.5L602.977 453.498M602.977 453.498L582.5 518.5M582.5 518.5H549M582.5 518.5L610.5 538M671.5 298.5L725.5 286.5M671.5 298.5V350L725.5 381.5M725.5 381.5L764.5 393M725.5 381.5V434L757 470.5M757 105.5L859 161M757 105.5L764.5 41.5M859 161L872.5 261.5M859 161L895 105.5M872.5 261.5L859 329.5M872.5 261.5L958.5 303.5M859 329.5L879.5 362.5L872.5 412.5L869.611 414.03M859 329.5L814.5 356.5M821.5 439.5L869.611 414.03M895 470.5L869.611 414.03M958.5 303.5L995.5 423.5M958.5 303.5L1052 311.5M995.5 423.5L975 495.5M995.5 423.5L1066 485M1066 485L1107 547M1066 485L1156.66 447.469M1107 547L1074 578.5M1107 547L1144 574L1194 578.5L1237 602.5M1181 400L1159 446.5L1156.66 447.469M1156.66 447.469H1256.5M1256.5 447.469L1296.5 485M1256.5 447.469L1317 414.03L1415.5 439.5L1439.5 362.5M1439.5 362.5L1475 350M1439.5 362.5V320M1052 311.5L1079 350M1052 311.5L1156.66 286.5M1156.66 286.5L1181 311.5M1156.66 286.5L1202.5 236.5M1202.5 236.5V198.5M1202.5 236.5L1286 198.5M895 105.5L969 75.5M895 105.5L869.611 48.5M969 75.5L1036 87M969 75.5L995.5 105.5L985 149L932 161M1036 87L1079 65.5M1036 87L1089 126M764.5 41.5L830.5 26.5L843 -14.5M764.5 41.5L719 -14.5L659.5 -6.5L625.5 -55.5M843 -14.5L872.5 -33M843 -14.5L835.5 -77M835.5 -77L814.5 -102M835.5 -77L852 -126M529.5 212.5L556 149M529.5 212.5L486 187V140.5M556 149L582.5 140.5M556 149L524 87L556 59M380.5 261.5L398 236.5L380.5 212.5L398 75.5M380.5 261.5L317.5 275.5M259 212.5L293.5 173M259 212.5L231 149M144.5 275.5L189 269M144.5 275.5L139 219M139 423.5L199 485M139 423.5L199 434M139 423.5L95.5 470.5L82 544.5M199 485V574.5M199 485L231 478.5M441 453.498L421 485M441 453.498H486L491 515.5" stroke="#99EDF9"/>
<circle cx="118.5" cy="367.5" r="6.5" fill="#99EDF9"/>
<circle cx="139.5" cy="424.5" r="6.5" fill="#99EDF9"/>
<circle cx="232.5" cy="380.5" r="6.5" fill="#99EDF9"/>
<circle cx="145.5" cy="275.5" r="6.5" fill="#99EDF9"/>
<circle cx="258.5" cy="211.5" r="6.5" fill="#99EDF9"/>
<circle cx="270.5" cy="275.5" r="4.5" fill="#99EDF9"/>
<circle cx="318.5" cy="275.5" r="4.5" fill="#99EDF9"/>
<circle cx="292.5" cy="173.5" r="4.5" fill="#99EDF9"/>
<circle cx="230.5" cy="149.5" r="4.5" fill="#99EDF9"/>
<circle cx="139.5" cy="219.5" r="4.5" fill="#99EDF9"/>
<circle cx="188.5" cy="268.5" r="4.5" fill="#99EDF9"/>
<circle cx="111.5" cy="329.5" r="4.5" fill="#99EDF9"/>
<circle cx="66.5" cy="367.5" r="4.5" fill="#99EDF9"/>
<circle cx="95.5" cy="470.5" r="4.5" fill="#99EDF9"/>
<circle cx="81.5" cy="544.5" r="4.5" fill="#99EDF9"/>
<circle cx="230.5" cy="478.5" r="4.5" fill="#99EDF9"/>
<circle cx="199.5" cy="433.5" r="4.5" fill="#99EDF9"/>
<circle cx="199.5" cy="572.5" r="4.5" fill="#99EDF9"/>
<circle cx="318.5" cy="465.5" r="4.5" fill="#99EDF9"/>
<circle cx="366.5" cy="508.5" r="4.5" fill="#99EDF9"/>
<circle cx="341.5" cy="564.5" r="4.5" fill="#99EDF9"/>
<circle cx="421.5" cy="484.5" r="4.5" fill="#99EDF9"/>
<circle cx="485.5" cy="453.5" r="4.5" fill="#99EDF9"/>
<circle cx="490.5" cy="513.5" r="4.5" fill="#99EDF9"/>
<circle cx="453.5" cy="252.5" r="4.5" fill="#99EDF9"/>
<circle cx="397.5" cy="236.5" r="4.5" fill="#99EDF9"/>
<circle cx="381.5" cy="212.5" r="4.5" fill="#99EDF9"/>
<circle cx="486.5" cy="186.5" r="4.5" fill="#99EDF9"/>
<circle cx="486.5" cy="139.5" r="4.5" fill="#99EDF9"/>
<circle cx="583.5" cy="139.5" r="4.5" fill="#99EDF9"/>
<circle cx="524.5" cy="87.5" r="4.5" fill="#99EDF9"/>
<circle cx="555.5" cy="58.5" r="4.5" fill="#99EDF9"/>
<circle cx="398.5" cy="76.5" r="4.5" fill="#99EDF9"/>
<circle cx="653.5" cy="149.5" r="4.5" fill="#99EDF9"/>
<circle cx="830.5" cy="25.5" r="4.5" fill="#99EDF9"/>
<circle cx="870.5" cy="49.5" r="4.5" fill="#99EDF9"/>
<circle cx="878.5" cy="362.5" r="4.5" fill="#99EDF9"/>
<circle cx="814.5" cy="356.5" r="4.5" fill="#99EDF9"/>
<circle cx="894.5" cy="469.5" r="4.5" fill="#99EDF9"/>
<circle cx="821.5" cy="440.5" r="4.5" fill="#99EDF9"/>
<circle cx="763.5" cy="392.5" r="4.5" fill="#99EDF9"/>
<circle cx="725.5" cy="433.5" r="4.5" fill="#99EDF9"/>
<circle cx="756.5" cy="469.5" r="4.5" fill="#99EDF9"/>
<circle cx="688.5" cy="485.5" r="4.5" fill="#99EDF9"/>
<circle cx="646.5" cy="464.5" r="4.5" fill="#99EDF9"/>
<circle cx="672.5" cy="349.5" r="4.5" fill="#99EDF9"/>
<circle cx="609.5" cy="344.5" r="4.5" fill="#99EDF9"/>
<circle cx="611.5" cy="465.5" r="4.5" fill="#99EDF9"/>
<circle cx="568.5" cy="399.5" r="4.5" fill="#99EDF9"/>
<circle cx="609.5" cy="538.5" r="4.5" fill="#99EDF9"/>
<circle cx="549.5" cy="517.5" r="4.5" fill="#99EDF9"/>
<circle cx="723.5" cy="285.5" r="4.5" fill="#99EDF9"/>
<circle cx="198.5" cy="485.5" r="6.5" fill="#99EDF9"/>
<circle cx="316.5" cy="421.5" r="6.5" fill="#99EDF9"/>
<circle cx="398.5" cy="399.5" r="6.5" fill="#99EDF9"/>
<circle cx="442.5" cy="453.5" r="6.5" fill="#99EDF9"/>
<circle cx="453.5" cy="302.5" r="6.5" fill="#99EDF9"/>
<circle cx="381.5" cy="260.5" r="6.5" fill="#99EDF9"/>
<circle cx="582.5" cy="260.5" r="6.5" fill="#99EDF9"/>
<circle cx="555.5" cy="148.5" r="6.5" fill="#99EDF9"/>
<circle cx="528.5" cy="211.5" r="6.5" fill="#99EDF9"/>
<circle cx="672.5" cy="299.5" r="6.5" fill="#99EDF9"/>
<circle cx="725.5" cy="381.5" r="6.5" fill="#99EDF9"/>
<circle cx="601.5" cy="452.5" r="6.5" fill="#99EDF9"/>
<circle cx="583.5" cy="517.5" r="6.5" fill="#99EDF9"/>
<circle cx="872.5" cy="262.5" r="6.5" fill="#99EDF9"/>
<circle cx="859.5" cy="330.5" r="6.5" fill="#99EDF9"/>
<circle cx="869.5" cy="413.5" r="6.5" fill="#99EDF9"/>
<circle cx="859.5" cy="160.5" r="6.5" fill="#99EDF9"/>
<circle cx="757.5" cy="105.5" r="6.5" fill="#99EDF9"/>
<circle cx="894.5" cy="105.5" r="6.5" fill="#99EDF9"/>
<circle cx="764.5" cy="41.5" r="6.5" fill="#99EDF9"/>
<path d="M4 58.5H57M57 58.5L169 72.5M57 58.5L50 20.5L82.5 -33.5M57 58.5L77 114.5M169 72.5L255.5 114.5M169 72.5L208.5 -33.5L197 -96.5M255.5 114.5L336 89.5M255.5 114.5V156.5L304 200.5L278.5 256.5M336 89.5L392 -5.5M336 89.5L379 144.498M392 -5.5L520.5 -47.5M392 -5.5L318.5 -47.5M392 -5.5V-58.5M520.5 -47.5L548.5 36.5L506.5 89.5L540.977 144.498M520.5 -47.5L609.5 -10.5M520.5 -47.5C520.5 -51.1 568.167 -124 592 -160L695 -203.5M520.5 -47.5L467.5 -96.5M626.5 176L584.5 156.5H548.5L540.977 144.498M540.977 144.498L520.5 209.5M520.5 209.5H487M520.5 209.5L548.5 229M609.5 -10.5L663.5 -22.5M609.5 -10.5V41L663.5 72.5M663.5 72.5L702.5 84M663.5 72.5V125L695 161.5M695 -203.5L797 -148M695 -203.5L702.5 -267.5M797 -148L810.5 -47.5M797 -148L833 -203.5M810.5 -47.5L797 20.5M810.5 -47.5L896.5 -5.5M797 20.5L817.5 53.5L810.5 103.5L807.611 105.03M797 20.5L752.5 47.5M759.5 130.5L807.611 105.03M833 161.5L807.611 105.03M896.5 -5.5L933.5 114.5M896.5 -5.5L990 2.5M933.5 114.5L913 186.5M933.5 114.5L1004 176M1004 176L1045 238M1004 176L1094.66 138.469M1045 238L1012 269.5M1045 238L1082 265L1132 269.5L1175 293.5M1119 91L1097 137.5L1094.66 138.469M1094.66 138.469H1194.5M1194.5 138.469L1234.5 176M1194.5 138.469L1255 105.03L1353.5 130.5L1377.5 53.5M1377.5 53.5L1413 41M1377.5 53.5V11M990 2.5L1017 41M990 2.5L1094.66 -22.5M1094.66 -22.5L1119 2.5M1094.66 -22.5L1140.5 -72.5M1140.5 -72.5V-110.5M1140.5 -72.5L1224 -110.5M833 -203.5L907 -233.5M833 -203.5L807.611 -260.5M907 -233.5L974 -222M907 -233.5L933.5 -203.5L923 -160L870 -148M974 -222L1017 -243.5M974 -222L1027 -183M702.5 -267.5L768.5 -282.5L781 -323.5M702.5 -267.5L657 -323.5L597.5 -315.5L563.5 -364.5M781 -323.5L810.5 -342M781 -323.5L773.5 -386M773.5 -386L752.5 -411M773.5 -386L790 -435M467.5 -96.5L494 -160M467.5 -96.5L424 -122V-168.5M494 -160L520.5 -168.5M494 -160L462 -222L494 -250M318.5 -47.5L336 -72.5L318.5 -96.5L336 -233.5M318.5 -47.5L255.5 -33.5M197 -96.5L231.5 -136M197 -96.5L169 -160M82.5 -33.5L127 -40M82.5 -33.5L77 -90M77 114.5L137 176M77 114.5L137 125M77 114.5L33.5 161.5L20 235.5M137 176V265.5M137 176L169 169.5M379 144.498L359 176M379 144.498H424L429 206.5" stroke="#607BCC"/>
<circle cx="56.5" cy="58.5" r="6.5" fill="#607BCC"/>
<circle cx="77.5" cy="115.5" r="6.5" fill="#607BCC"/>
<circle cx="170.5" cy="71.5" r="6.5" fill="#607BCC"/>
<circle cx="49.5" cy="20.5" r="4.5" fill="#607BCC"/>
<circle cx="4.5" cy="58.5" r="4.5" fill="#607BCC"/>
<circle cx="33.5" cy="161.5" r="4.5" fill="#607BCC"/>
<circle cx="19.5" cy="235.5" r="4.5" fill="#607BCC"/>
<circle cx="168.5" cy="169.5" r="4.5" fill="#607BCC"/>
<circle cx="137.5" cy="124.5" r="4.5" fill="#607BCC"/>
<circle cx="137.5" cy="263.5" r="4.5" fill="#607BCC"/>
<circle cx="256.5" cy="156.5" r="4.5" fill="#607BCC"/>
<circle cx="304.5" cy="199.5" r="4.5" fill="#607BCC"/>
<circle cx="279.5" cy="255.5" r="4.5" fill="#607BCC"/>
<circle cx="359.5" cy="175.5" r="4.5" fill="#607BCC"/>
<circle cx="423.5" cy="144.5" r="4.5" fill="#607BCC"/>
<circle cx="428.5" cy="204.5" r="4.5" fill="#607BCC"/>
<circle cx="816.5" cy="53.5" r="4.5" fill="#607BCC"/>
<circle cx="752.5" cy="47.5" r="4.5" fill="#607BCC"/>
<circle cx="832.5" cy="160.5" r="4.5" fill="#607BCC"/>
<circle cx="759.5" cy="131.5" r="4.5" fill="#607BCC"/>
<circle cx="701.5" cy="83.5" r="4.5" fill="#607BCC"/>
<circle cx="663.5" cy="124.5" r="4.5" fill="#607BCC"/>
<circle cx="694.5" cy="160.5" r="4.5" fill="#607BCC"/>
<circle cx="626.5" cy="176.5" r="4.5" fill="#607BCC"/>
<circle cx="584.5" cy="155.5" r="4.5" fill="#607BCC"/>
<circle cx="610.5" cy="40.5" r="4.5" fill="#607BCC"/>
<circle cx="547.5" cy="35.5" r="4.5" fill="#607BCC"/>
<circle cx="549.5" cy="156.5" r="4.5" fill="#607BCC"/>
<circle cx="506.5" cy="90.5" r="4.5" fill="#607BCC"/>
<circle cx="547.5" cy="229.5" r="4.5" fill="#607BCC"/>
<circle cx="487.5" cy="208.5" r="4.5" fill="#607BCC"/>
<circle cx="136.5" cy="176.5" r="6.5" fill="#607BCC"/>
<circle cx="254.5" cy="112.5" r="6.5" fill="#607BCC"/>
<circle cx="336.5" cy="90.5" r="6.5" fill="#607BCC"/>
<circle cx="380.5" cy="144.5" r="6.5" fill="#607BCC"/>
<circle cx="663.5" cy="72.5" r="6.5" fill="#607BCC"/>
<circle cx="539.5" cy="143.5" r="6.5" fill="#607BCC"/>
<circle cx="521.5" cy="208.5" r="6.5" fill="#607BCC"/>
<circle cx="797.5" cy="21.5" r="6.5" fill="#607BCC"/>
<circle cx="807.5" cy="104.5" r="6.5" fill="#607BCC"/>
<circle cx="897.5" cy="-4.5" r="6.5" fill="#607BCC"/>
<path d="M386 398.5H439M439 398.5L551 412.5M439 398.5L432 360.5L464.5 306.5M439 398.5L459 454.5M551 412.5L637.5 454.5M551 412.5L590.5 306.5L579 243.5M637.5 454.5L718 429.5M637.5 454.5V496.5L686 540.5L660.5 596.5M718 429.5L774 334.5M718 429.5L761 484.498M774 334.5L902.5 292.5M774 334.5L700.5 292.5M774 334.5V281.5M902.5 292.5L930.5 376.5L888.5 429.5L922.977 484.498M902.5 292.5L991.5 329.5M902.5 292.5C902.5 288.9 950.167 216 974 180L1077 136.5M902.5 292.5L849.5 243.5M1008.5 516L966.5 496.5H930.5L922.977 484.498M922.977 484.498L902.5 549.5M902.5 549.5H869M902.5 549.5L930.5 569M991.5 329.5L1045.5 317.5M991.5 329.5V381L1045.5 412.5M1045.5 412.5L1084.5 424M1045.5 412.5V465L1077 501.5M1077 136.5L1179 192M1077 136.5L1084.5 72.5M1179 192L1192.5 292.5M1179 192L1215 136.5M1192.5 292.5L1179 360.5M1192.5 292.5L1278.5 334.5M1179 360.5L1199.5 393.5L1192.5 443.5L1189.61 445.03M1179 360.5L1134.5 387.5M1141.5 470.5L1189.61 445.03M1215 501.5L1189.61 445.03M1278.5 334.5L1315.5 454.5M1278.5 334.5L1372 342.5M1315.5 454.5L1295 526.5M1315.5 454.5L1386 516M1386 516L1427 578M1386 516L1476.66 478.469M1427 578L1394 609.5M1427 578L1464 605L1514 609.5L1557 633.5M1501 431L1479 477.5L1476.66 478.469M1476.66 478.469H1576.5M1576.5 478.469L1616.5 516M1576.5 478.469L1637 445.03L1735.5 470.5L1759.5 393.5M1759.5 393.5L1795 381M1759.5 393.5V351M1372 342.5L1399 381M1372 342.5L1476.66 317.5M1476.66 317.5L1501 342.5M1476.66 317.5L1522.5 267.5M1522.5 267.5V229.5M1522.5 267.5L1606 229.5M1215 136.5L1289 106.5M1215 136.5L1189.61 79.5M1289 106.5L1356 118M1289 106.5L1315.5 136.5L1305 180L1252 192M1356 118L1399 96.5M1356 118L1409 157M1084.5 72.5L1150.5 57.5L1163 16.5M1084.5 72.5L1039 16.5L979.5 24.5L945.5 -24.5M1163 16.5L1192.5 -2M1163 16.5L1155.5 -46M1155.5 -46L1134.5 -71M1155.5 -46L1172 -95M849.5 243.5L876 180M849.5 243.5L806 218V171.5M876 180L902.5 171.5M876 180L844 118L876 90M700.5 292.5L718 267.5L700.5 243.5L718 106.5M700.5 292.5L637.5 306.5M579 243.5L613.5 204M579 243.5L551 180M464.5 306.5L509 300M464.5 306.5L459 250M459 454.5L519 516M459 454.5L519 465M459 454.5L415.5 501.5L402 575.5M519 516V605.5M519 516L551 509.5M761 484.498L741 516M761 484.498H806L811 546.5" stroke="#C292EB"/>
<circle cx="438.5" cy="398.5" r="6.5" fill="#C292EB"/>
<circle cx="459.5" cy="455.5" r="6.5" fill="#C292EB"/>
<circle cx="552.5" cy="411.5" r="6.5" fill="#C292EB"/>
<circle cx="465.5" cy="306.5" r="6.5" fill="#C292EB"/>
<circle cx="578.5" cy="242.5" r="6.5" fill="#C292EB"/>
<circle cx="590.5" cy="306.5" r="4.5" fill="#C292EB"/>
<circle cx="638.5" cy="306.5" r="4.5" fill="#C292EB"/>
<circle cx="612.5" cy="204.5" r="4.5" fill="#C292EB"/>
<circle cx="550.5" cy="180.5" r="4.5" fill="#C292EB"/>
<circle cx="459.5" cy="250.5" r="4.5" fill="#C292EB"/>
<circle cx="508.5" cy="299.5" r="4.5" fill="#C292EB"/>
<circle cx="431.5" cy="360.5" r="4.5" fill="#C292EB"/>
<circle cx="386.5" cy="398.5" r="4.5" fill="#C292EB"/>
<circle cx="415.5" cy="501.5" r="4.5" fill="#C292EB"/>
<circle cx="401.5" cy="575.5" r="4.5" fill="#C292EB"/>
<circle cx="550.5" cy="509.5" r="4.5" fill="#C292EB"/>
<circle cx="519.5" cy="464.5" r="4.5" fill="#C292EB"/>
<circle cx="519.5" cy="603.5" r="4.5" fill="#C292EB"/>
<circle cx="638.5" cy="496.5" r="4.5" fill="#C292EB"/>
<circle cx="686.5" cy="539.5" r="4.5" fill="#C292EB"/>
<circle cx="661.5" cy="595.5" r="4.5" fill="#C292EB"/>
<circle cx="741.5" cy="515.5" r="4.5" fill="#C292EB"/>
<circle cx="805.5" cy="484.5" r="4.5" fill="#C292EB"/>
<circle cx="810.5" cy="544.5" r="4.5" fill="#C292EB"/>
<circle cx="773.5" cy="283.5" r="4.5" fill="#C292EB"/>
<circle cx="717.5" cy="267.5" r="4.5" fill="#C292EB"/>
<circle cx="701.5" cy="243.5" r="4.5" fill="#C292EB"/>
<circle cx="806.5" cy="217.5" r="4.5" fill="#C292EB"/>
<circle cx="806.5" cy="170.5" r="4.5" fill="#C292EB"/>
<circle cx="903.5" cy="170.5" r="4.5" fill="#C292EB"/>
<circle cx="844.5" cy="118.5" r="4.5" fill="#C292EB"/>
<circle cx="875.5" cy="89.5" r="4.5" fill="#C292EB"/>
<circle cx="718.5" cy="107.5" r="4.5" fill="#C292EB"/>
<circle cx="888.5" cy="430.5" r="4.5" fill="#C292EB"/>
<circle cx="869.5" cy="548.5" r="4.5" fill="#C292EB"/>
<circle cx="518.5" cy="516.5" r="6.5" fill="#C292EB"/>
<circle cx="636.5" cy="452.5" r="6.5" fill="#C292EB"/>
<circle cx="718.5" cy="430.5" r="6.5" fill="#C292EB"/>
<circle cx="762.5" cy="484.5" r="6.5" fill="#C292EB"/>
<circle cx="773.5" cy="333.5" r="6.5" fill="#C292EB"/>
<circle cx="701.5" cy="291.5" r="6.5" fill="#C292EB"/>
<circle cx="902.5" cy="291.5" r="6.5" fill="#C292EB"/>
<circle cx="875.5" cy="179.5" r="6.5" fill="#C292EB"/>
<circle cx="848.5" cy="242.5" r="6.5" fill="#C292EB"/>
<circle cx="903.5" cy="548.5" r="6.5" fill="#C292EB"/>
</svg>
