<svg width="265" height="56" viewBox="0 0 265 56" fill="none" xmlns="http://www.w3.org/2000/svg">
<path fill-rule="evenodd" clip-rule="evenodd" d="M11.884 13.2344C10.9102 14.6292 10.0809 16.636 9.48426 19.0624C9.45608 19.177 9.3403 19.2471 9.22568 19.2189C9.11106 19.1907 9.04098 19.075 9.06917 18.9603C9.67322 16.5039 10.5192 14.4425 11.5335 12.9897C12.5446 11.5416 13.7512 10.6611 15.0794 10.6611C16.0986 10.6611 17.0476 11.181 17.8881 12.0742C18.7282 12.9669 19.475 14.2473 20.0976 15.8116C21.3433 18.9415 22.1091 23.2508 22.1091 27.9999C22.1091 32.749 21.3433 37.0583 20.0976 40.1882C19.475 41.7525 18.7282 43.0328 17.8881 43.9256C17.0476 44.8188 16.0986 45.3387 15.0794 45.3387C14.0602 45.3387 13.1112 44.8188 12.2707 43.9256C11.4306 43.0328 10.6839 41.7525 10.0612 40.1882C8.81551 37.0583 8.04975 32.749 8.04975 27.9999C8.04975 26.0526 8.17849 24.1801 8.41597 22.4332C8.43187 22.3162 8.53958 22.2343 8.65654 22.2502C8.7735 22.2661 8.85543 22.3738 8.83953 22.4907C8.60473 24.218 8.47721 26.0712 8.47721 27.9999C8.47721 32.7087 9.23725 36.962 10.4584 40.0301C11.0692 41.5648 11.7912 42.7923 12.582 43.6327C13.3724 44.4727 14.2164 44.9112 15.0794 44.9112C15.9424 44.9112 16.7864 44.4727 17.5768 43.6327C18.3676 42.7923 19.0896 41.5648 19.7004 40.0301C20.9216 36.962 21.6816 32.7087 21.6816 27.9999C21.6816 23.2911 20.9216 19.0378 19.7004 15.9697C19.0896 14.435 18.3676 13.2075 17.5768 12.3671C16.7864 11.5271 15.9424 11.0886 15.0794 11.0886C13.9554 11.0886 12.8611 11.835 11.884 13.2344Z" fill="url(#paint0_linear_462_1388)"/>
<path fill-rule="evenodd" clip-rule="evenodd" d="M22.5436 17.4942C19.3122 18.1746 15.3488 19.8948 11.4264 22.5002C7.50403 25.1056 4.38169 28.092 2.50163 30.8067C1.56124 32.1647 0.938173 33.4453 0.6757 34.569C0.413353 35.6921 0.515053 36.6378 0.992534 37.3567C1.50449 38.1274 2.42505 38.6014 3.69049 38.7674C3.80753 38.7827 3.88996 38.89 3.87461 39.0071C3.85927 39.1241 3.75194 39.2065 3.63491 39.1912C2.29911 39.016 1.24135 38.5038 0.636469 37.5932C0.0725525 36.7442 -0.019524 35.6661 0.259447 34.4717C0.538291 33.278 1.19164 31.9476 2.15022 30.5634C4.06812 27.7939 7.234 24.7718 11.1899 22.1441C15.1458 19.5165 19.1591 17.77 22.4555 17.0759C24.1031 16.729 25.5827 16.6426 26.7912 16.8484C28.0003 17.0544 28.9584 17.5573 29.5223 18.4062C30.0862 19.2552 30.1783 20.3334 29.8993 21.5277C29.6205 22.7215 28.9671 24.0519 28.0086 25.436C26.0907 28.2055 22.9248 31.2277 18.9689 33.8553C14.8602 36.5844 10.6891 38.3633 7.32335 38.9994C7.20737 39.0214 7.09557 38.9451 7.07365 38.8291C7.05173 38.7131 7.12799 38.6013 7.24397 38.5794C10.5397 37.9565 14.6579 36.2057 18.7324 33.4992C22.6547 30.8939 25.7771 27.9075 27.6571 25.1927C28.5975 23.8348 29.2206 22.5541 29.4831 21.4305C29.7454 20.3073 29.6437 19.3616 29.1662 18.6427C28.6888 17.9239 27.8564 17.4635 26.7194 17.2698C25.5819 17.0761 24.1599 17.1539 22.5436 17.4942Z" fill="url(#paint1_linear_462_1388)"/>
<path fill-rule="evenodd" clip-rule="evenodd" d="M29.2963 37.158C29.4418 36.9321 29.55 36.686 29.6221 36.4209C29.6531 36.307 29.7706 36.2398 29.8845 36.2708C29.9984 36.3018 30.0656 36.4193 30.0346 36.5332C29.9514 36.8387 29.8258 37.1253 29.6556 37.3895C29.1037 38.2463 28.1527 38.7626 26.9467 38.9855C25.7412 39.2083 24.2605 39.1426 22.6082 38.8189C19.3023 38.1712 15.2649 36.4812 11.2725 33.9094C7.28014 31.3375 4.07214 28.3601 2.11554 25.6179C1.13762 24.2473 0.465654 22.9262 0.170076 21.7364C-0.125636 20.5462 -0.0487071 19.4668 0.503233 18.61C1.05517 17.7532 2.00614 17.2369 3.21218 17.014C4.41767 16.7912 5.8984 16.8569 7.55068 17.1806C10.8565 17.8283 14.8939 19.5183 18.8863 22.0901C23.6039 25.1291 27.2303 28.7372 28.9873 31.8566C29.0452 31.9595 29.0088 32.0898 28.9059 32.1477C28.8031 32.2057 28.6728 32.1692 28.6148 32.0664C26.9032 29.0275 23.3368 25.4655 18.6548 22.4495C14.6963 19.8994 10.7091 18.235 7.46849 17.6001C5.84754 17.2825 4.42458 17.2247 3.28986 17.4344C2.15569 17.644 1.32992 18.116 0.862584 18.8415C0.395244 19.567 0.306832 20.514 0.584923 21.6334C0.863148 22.7533 1.50413 24.025 2.4635 25.3696C4.38149 28.0577 7.54545 31 11.504 33.55C15.4626 36.1001 19.4498 37.7645 22.6904 38.3994C24.3113 38.717 25.7343 38.7748 26.869 38.5651C28.0032 38.3555 28.8289 37.8835 29.2963 37.158Z" fill="url(#paint2_linear_462_1388)"/>
<path d="M9.96745 20.6302C9.96745 21.2184 9.49064 21.6952 8.90246 21.6952C8.31428 21.6952 7.83747 21.2184 7.83747 20.6302C7.83747 20.042 8.31428 19.5652 8.90246 19.5652C9.49064 19.5652 9.96745 20.042 9.96745 20.6302Z" fill="url(#paint3_linear_462_1388)"/>
<path d="M6.38911 39.0333C6.38911 39.6215 5.9123 40.0983 5.32412 40.0983C4.73594 40.0983 4.25913 39.6215 4.25913 39.0333C4.25913 38.4451 4.73594 37.9683 5.32412 37.9683C5.9123 37.9683 6.38911 38.4451 6.38911 39.0333Z" fill="url(#paint4_linear_462_1388)"/>
<path d="M30.5857 34.4324C30.5857 35.0206 30.1089 35.4974 29.5207 35.4974C28.9325 35.4974 28.4557 35.0206 28.4557 34.4324C28.4557 33.8442 28.9325 33.3674 29.5207 33.3674C30.1089 33.3674 30.5857 33.8442 30.5857 34.4324Z" fill="url(#paint5_linear_462_1388)"/>
<path fill-rule="evenodd" clip-rule="evenodd" d="M14.4755 27.4639V25.6994H15.5899V27.4639H17.3543V28.5783H15.5899V30.3427H14.4755L14.4755 28.5783H12.711V27.4639H14.4755Z" fill="url(#paint6_linear_462_1388)"/>
<path d="M66.2327 45.9446L61.0258 40.7378C59.7522 41.0874 58.4536 41.2622 57.13 41.2622C54.7076 41.2622 52.4975 40.7003 50.4997 39.5765C48.5019 38.4278 46.9161 36.842 45.7423 34.8192C44.5936 32.7714 44.0192 30.4739 44.0192 27.9267C44.0192 25.3794 44.5936 23.0944 45.7423 21.0716C46.9161 19.0238 48.5019 17.438 50.4997 16.3142C52.4975 15.1655 54.7076 14.5911 57.13 14.5911C59.5774 14.5911 61.8 15.1655 63.7978 16.3142C65.7956 17.438 67.3689 19.0113 68.5177 21.0341C69.6665 23.0569 70.2408 25.3544 70.2408 27.9267C70.2408 30.4239 69.6914 32.6715 68.5926 34.6694C67.4938 36.6672 65.9829 38.2405 64.06 39.3892L70.6529 45.9446H66.2327ZM47.5029 27.9267C47.5029 29.9994 47.915 31.8224 48.7391 33.3957C49.5882 34.969 50.7369 36.1802 52.1854 37.0293C53.6588 37.8784 55.307 38.3029 57.13 38.3029C58.9531 38.3029 60.5888 37.8784 62.0372 37.0293C63.5106 36.1802 64.6594 34.969 65.4835 33.3957C66.3326 31.8224 66.7571 29.9994 66.7571 27.9267C66.7571 25.8289 66.3326 24.0059 65.4835 22.4576C64.6594 20.8843 63.5231 19.6731 62.0747 18.824C60.6262 17.9749 58.978 17.5504 57.13 17.5504C55.282 17.5504 53.6338 17.9749 52.1854 18.824C50.7369 19.6731 49.5882 20.8843 48.7391 22.4576C47.915 24.0059 47.5029 25.8289 47.5029 27.9267ZM92.2702 20.4722V41H88.8614V37.9658C88.2121 39.0146 87.3006 39.8388 86.1269 40.4381C84.9781 41.0125 83.7045 41.2997 82.306 41.2997C80.7077 41.2997 79.2718 40.975 77.9982 40.3257C76.7245 39.6515 75.7131 38.6525 74.9639 37.329C74.2397 36.0054 73.8776 34.3946 73.8776 32.4967V20.4722H77.249V32.0472C77.249 34.07 77.7609 35.6308 78.7848 36.7296C79.8087 37.8035 81.2072 38.3404 82.9803 38.3404C84.8033 38.3404 86.2392 37.7785 87.2881 36.6547C88.337 35.5309 88.8614 33.8952 88.8614 31.7475V20.4722H92.2702ZM96.003 30.6612C96.003 28.5635 96.4275 26.7279 97.2766 25.1547C98.1257 23.5564 99.2869 22.3202 100.76 21.4462C102.259 20.5721 103.919 20.1351 105.742 20.1351C107.54 20.1351 109.101 20.5222 110.425 21.2963C111.748 22.0705 112.735 23.0444 113.384 24.2182V20.4722H116.83V41H113.384V37.1791C112.71 38.3778 111.698 39.3768 110.35 40.1759C109.026 40.9501 107.478 41.3371 105.705 41.3371C103.882 41.3371 102.234 40.8876 100.76 39.9886C99.2869 39.0896 98.1257 37.8284 97.2766 36.2052C96.4275 34.5819 96.003 32.7339 96.003 30.6612ZM113.384 30.6987C113.384 29.1503 113.072 27.8018 112.448 26.653C111.823 25.5043 110.974 24.6302 109.9 24.0309C108.852 23.4065 107.69 23.0944 106.417 23.0944C105.143 23.0944 103.982 23.3941 102.933 23.9934C101.884 24.5928 101.048 25.4668 100.423 26.6156C99.7989 27.7643 99.4867 29.1129 99.4867 30.6612C99.4867 32.2345 99.7989 33.608 100.423 34.7817C101.048 35.9305 101.884 36.817 102.933 37.4414C103.982 38.0407 105.143 38.3404 106.417 38.3404C107.69 38.3404 108.852 38.0407 109.9 37.4414C110.974 36.817 111.823 35.9305 112.448 34.7817C113.072 33.608 113.384 32.247 113.384 30.6987ZM131.843 20.0976C134.341 20.0976 136.364 20.8593 137.912 22.3827C139.46 23.881 140.234 26.0537 140.234 28.9006V41H136.863V29.3876C136.863 27.3398 136.351 25.779 135.327 24.7051C134.303 23.6063 132.905 23.0569 131.132 23.0569C129.334 23.0569 127.898 23.6188 126.824 24.7426C125.775 25.8664 125.251 27.5021 125.251 29.6498V41H121.842V20.4722H125.251V23.3941C125.925 22.3452 126.836 21.5336 127.985 20.9592C129.159 20.3848 130.445 20.0976 131.843 20.0976ZM171.537 15.0781V41H168.129V21.6709L159.513 41H157.115L148.462 21.6335V41H145.054V15.0781H148.725L158.314 36.5049L167.904 15.0781H171.537ZM195.299 29.9495C195.299 30.5988 195.261 31.2855 195.187 32.0097H178.779C178.904 34.0325 179.591 35.6183 180.84 36.7671C182.113 37.8909 183.649 38.4528 185.447 38.4528C186.92 38.4528 188.144 38.1156 189.118 37.4414C190.117 36.7421 190.816 35.8181 191.216 34.6694H194.887C194.337 36.6422 193.239 38.253 191.59 39.5016C189.942 40.7253 187.894 41.3371 185.447 41.3371C183.499 41.3371 181.751 40.9001 180.203 40.0261C178.679 39.152 177.481 37.9158 176.607 36.3176C175.733 34.6943 175.296 32.8214 175.296 30.6987C175.296 28.5759 175.72 26.7155 176.569 25.1172C177.418 23.5189 178.604 22.2952 180.128 21.4462C181.676 20.5721 183.449 20.1351 185.447 20.1351C187.395 20.1351 189.118 20.5596 190.616 21.4087C192.115 22.2578 193.264 23.4315 194.063 24.9299C194.887 26.4033 195.299 28.0765 195.299 29.9495ZM191.778 29.2377C191.778 27.9391 191.491 26.8278 190.916 25.9038C190.342 24.9549 189.555 24.2431 188.556 23.7687C187.582 23.2692 186.496 23.0195 185.297 23.0195C183.574 23.0195 182.101 23.5689 180.877 24.6677C179.678 25.7665 178.992 27.2898 178.817 29.2377H191.778ZM197.776 30.6612C197.776 28.5635 198.2 26.7279 199.049 25.1547C199.898 23.5564 201.06 22.3202 202.533 21.4462C204.031 20.5721 205.705 20.1351 207.553 20.1351C209.151 20.1351 210.637 20.5097 212.01 21.2589C213.384 21.9831 214.433 22.9445 215.157 24.1432V13.28H218.603V41H215.157V37.1417C214.483 38.3654 213.484 39.3768 212.16 40.1759C210.837 40.9501 209.288 41.3371 207.515 41.3371C205.692 41.3371 204.031 40.8876 202.533 39.9886C201.06 39.0896 199.898 37.8284 199.049 36.2052C198.2 34.5819 197.776 32.7339 197.776 30.6612ZM215.157 30.6987C215.157 29.1503 214.845 27.8018 214.22 26.653C213.596 25.5043 212.747 24.6302 211.673 24.0309C210.624 23.4065 209.463 23.0944 208.189 23.0944C206.916 23.0944 205.755 23.3941 204.706 23.9934C203.657 24.5928 202.82 25.4668 202.196 26.6156C201.572 27.7643 201.259 29.1129 201.259 30.6612C201.259 32.2345 201.572 33.608 202.196 34.7817C202.82 35.9305 203.657 36.817 204.706 37.4414C205.755 38.0407 206.916 38.3404 208.189 38.3404C209.463 38.3404 210.624 38.0407 211.673 37.4414C212.747 36.817 213.596 35.9305 214.22 34.7817C214.845 33.608 215.157 32.247 215.157 30.6987ZM248.285 35.1938H236.898L234.8 41H231.204L240.644 15.0406H244.577L253.979 41H250.383L248.285 35.1938ZM247.311 32.4218L242.591 19.2361L237.872 32.4218H247.311ZM260.753 13.28V41H257.344V13.28H260.753Z" fill="#FAFBFC"/>
<defs>
<linearGradient id="paint0_linear_462_1388" x1="-16.3845" y1="8.41698" x2="-2.86386" y2="70.8181" gradientUnits="userSpaceOnUse">
<stop offset="0.254654" stop-color="#99EDF9"/>
<stop offset="0.474505" stop-color="#607BCC"/>
<stop offset="0.726883" stop-color="#C292EB"/>
</linearGradient>
<linearGradient id="paint1_linear_462_1388" x1="-27.1118" y1="29.9674" x2="59.1124" y2="31.334" gradientUnits="userSpaceOnUse">
<stop offset="0.248389" stop-color="#99EDF9"/>
<stop offset="0.552511" stop-color="#607BCC"/>
<stop offset="1" stop-color="#956DB8"/>
</linearGradient>
<linearGradient id="paint2_linear_462_1388" x1="1.92115" y1="46.1341" x2="8.45484" y2="-1.2012" gradientUnits="userSpaceOnUse">
<stop offset="0.18831" stop-color="#99EDF9"/>
<stop offset="0.503545" stop-color="#607BCC"/>
<stop offset="0.856611" stop-color="#C292EB"/>
</linearGradient>
<linearGradient id="paint3_linear_462_1388" x1="-20.7016" y1="-18.6044" x2="129.724" y2="203.062" gradientUnits="userSpaceOnUse">
<stop offset="0.207076" stop-color="#99EDF9"/>
<stop offset="0.484375" stop-color="#607BCC"/>
<stop offset="1" stop-color="#C292EB"/>
</linearGradient>
<linearGradient id="paint4_linear_462_1388" x1="-8.05955" y1="27.616" x2="25.988" y2="51.858" gradientUnits="userSpaceOnUse">
<stop offset="0.324328" stop-color="#99EDF9"/>
<stop offset="0.500141" stop-color="#607BCC"/>
<stop offset="0.588806" stop-color="#C292EB"/>
</linearGradient>
<linearGradient id="paint5_linear_462_1388" x1="26.4814" y1="44.1189" x2="29.25" y2="23.4296" gradientUnits="userSpaceOnUse">
<stop offset="0.231368" stop-color="#99EDF9"/>
<stop offset="0.764461" stop-color="#607BCC"/>
<stop offset="0.990046" stop-color="#C292EB"/>
</linearGradient>
<linearGradient id="paint6_linear_462_1388" x1="7.59807" y1="18.8361" x2="32.6578" y2="48.1437" gradientUnits="userSpaceOnUse">
<stop offset="0.176502" stop-color="#99EDF9"/>
<stop offset="0.374655" stop-color="#607BCC"/>
<stop offset="1" stop-color="#C292EB"/>
</linearGradient>
</defs>
</svg>
