<svg width="1127" height="992" viewBox="0 0 1127 992" fill="none" xmlns="http://www.w3.org/2000/svg">
    <g id="DNA">
        <g id="first_container">
            <g id="first">
            <path id="Vector 10" d="M-714.021 750.517L-661.502 757.641M-661.502 757.641L-552.4 786.569M-661.502 757.641L-663.33 719.045L-623.867 669.903M-661.502 757.641L-649.211 815.821M-552.4 786.569L-472.331 839.815M-552.4 786.569L-499.01 686.84L-501.938 622.866M-472.331 839.815L-389.201 825.862M-472.331 839.815L-477.976 881.433L-435.831 931.553L-468.627 983.617M-389.201 825.862L-320.939 739.252M-389.201 825.862L-353.984 886.141M-320.939 739.252L-187.96 714.905M-320.939 739.252L-388.127 687.753M-320.939 739.252L-313.815 686.732M-187.96 714.905L-171.505 801.907L-220.248 848.78L-193.477 907.914M-187.96 714.905L-104.741 763.533M-187.96 714.905C-187.476 711.338 -130.443 645.507 -101.987 613.037L5.92566 583.777M-187.96 714.905L-233.892 659.226M-112.964 950.625L-151.962 925.657L-187.635 920.818L-193.477 907.914M-193.477 907.914L-222.505 969.573M-222.505 969.573L-255.701 965.07M-222.505 969.573L-197.38 992.66M-104.741 763.533L-49.618 758.9M-104.741 763.533L-111.663 814.565L-62.3877 853.038M-62.3877 853.038L-25.2874 869.676M-62.3877 853.038L-69.4446 905.062L-43.1367 945.464M5.92566 583.777L99.5398 652.484M5.92566 583.777L21.9603 521.366M99.5398 652.484L99.4084 753.886M99.5398 652.484L142.673 602.326M99.4084 753.886L76.8905 819.455M99.4084 753.886L178.982 807.065M76.8905 819.455L92.7687 854.911L79.1114 903.516L76.0429 904.643M76.8905 819.455L29.1651 840.228M24.9449 923.416L76.0429 904.643M93.611 964.014L76.0429 904.643M178.982 807.065L199.517 930.949M178.982 807.065L270.559 827.56M199.517 930.949L169.525 999.541M199.517 930.949L261.11 1001.37M261.11 1001.37L293.404 1068.32M261.11 1001.37L355.992 976.363M293.404 1068.32L256.469 1095.09M293.404 1068.32L326.439 1100.04L375.38 1111.22L414.764 1140.79M386.492 932.597L358.441 975.718L355.992 976.363M355.992 976.363L454.926 989.784M454.926 989.784L489.518 1032.35M454.926 989.784L519.372 964.78L613.554 1003.26L647.687 930.184M647.687 930.184L684.545 922.57M647.687 930.184L653.399 888.07M270.559 827.56L292.138 869.34M270.559 827.56L377.629 816.855M377.629 816.855L398.388 844.9M377.629 816.855L429.774 773.471M429.774 773.471L434.882 735.816M429.774 773.471L517.624 747.04M142.673 602.326L220.034 582.546M142.673 602.326L125.176 542.431M220.034 582.546L284.88 602.947M220.034 582.546L242.261 615.835L226.009 657.529L171.877 662.296M284.88 602.947L330.38 587.422M284.88 602.947L332.157 648.717M21.9603 521.366L89.3776 515.373L107.275 476.426M21.9603 521.366L-15.5994 459.758L-75.6348 459.688L-102.74 406.562M107.275 476.426L138.994 462.059M107.275 476.426L108.244 413.485M108.244 413.485L90.7954 385.889M108.244 413.485L131.181 367.147M-233.892 659.226L-199.097 599.864M-233.892 659.226L-273.57 628.11L-267.32 582.032M-199.097 599.864L-171.695 595.003M-199.097 599.864L-222.473 534.125L-187 510.681M-388.127 687.753L-367.425 665.332L-381.54 639.198L-345.784 505.793M-388.127 687.753L-452.437 693.158M-501.938 622.866L-462.441 588.362M-501.938 622.866L-521.148 556.179M-623.867 669.903L-578.897 669.444M-623.867 669.903L-621.722 613.177M-649.211 815.821L-598.022 884.828M-649.211 815.821L-591.166 834.291M-649.211 815.821L-698.633 856.547L-721.958 928.061M-598.022 884.828L-610.052 973.516M-598.022 884.828L-565.438 882.688M-353.984 886.141L-378.036 914.669M-353.984 886.141L-309.392 892.19L-312.771 954.301" stroke="#99EDF9"/>
            <circle id="Ellipse 156" cx="89.512" cy="514.382" r="4.5" transform="rotate(7.72493 89.512 514.382)" fill="#99EDF9"/>
            <circle id="Ellipse 157" cx="138.927" cy="462.554" r="4.5" transform="rotate(7.72493 138.927 462.554)" fill="#99EDF9"/>
            <circle id="Ellipse 158" cx="90.8626" cy="385.393" r="4.5" transform="rotate(7.72493 90.8626 385.393)" fill="#99EDF9"/>
            <circle id="Ellipse 159" cx="130.618" cy="367.576" r="4.5" transform="rotate(7.72493 130.618 367.576)" fill="#99EDF9"/>
            <circle id="Ellipse 160" cx="125.923" cy="543.541" r="4.5" transform="rotate(7.72493 125.923 543.541)" fill="#99EDF9"/>
            <circle id="Ellipse 161" cx="241.405" cy="614.71" r="4.5" transform="rotate(7.72493 241.405 614.71)" fill="#99EDF9"/>
            <circle id="Ellipse 162" cx="225.581" cy="656.966" r="4.5" transform="rotate(7.72493 225.581 656.966)" fill="#99EDF9"/>
            <circle id="Ellipse 163" cx="173.297" cy="662.993" r="4.5" transform="rotate(7.72493 173.297 662.993)" fill="#99EDF9"/>
            <circle id="Ellipse 164" cx="330.872" cy="647.029" r="4.5" transform="rotate(7.72493 330.872 647.029)" fill="#99EDF9"/>
            <circle id="Ellipse 165" cx="330.876" cy="587.489" r="4.5" transform="rotate(7.72493 330.876 587.489)" fill="#99EDF9"/>
            <circle id="Ellipse 166" cx="91.7777" cy="854.776" r="4.5" transform="rotate(7.72493 91.7777 854.776)" fill="#99EDF9"/>
            <circle id="Ellipse 172" cx="386.92" cy="933.16" r="4.5" transform="rotate(7.72493 386.92 933.16)" fill="#99EDF9"/>
            <circle id="Ellipse 174" cx="518.948" cy="964.188" r="4.5" transform="rotate(7.72493 518.948 964.188)" fill="#99EDF9"/>
            <circle id="Ellipse 176" cx="648.812" cy="929.328" r="4.5" transform="rotate(7.72493 648.812 929.328)" fill="#99EDF9"/>
            <circle id="Ellipse 177" cx="653.467" cy="887.575" r="4.5" transform="rotate(7.72493 653.467 887.575)" fill="#99EDF9"/>
            <circle id="Ellipse 179" cx="517.129" cy="746.972" r="4.5" transform="rotate(7.72493 517.129 746.972)" fill="#99EDF9"/>
            <circle id="Ellipse 180" cx="434.882" cy="735.816" r="4.5" transform="rotate(7.72493 434.882 735.816)" fill="#99EDF9"/>
            <circle id="Ellipse 181" cx="397.892" cy="844.833" r="4.5" transform="rotate(7.72493 397.892 844.833)" fill="#99EDF9"/>
            <circle id="Ellipse 182" cx="289.997" cy="866.527" r="4.5" transform="rotate(7.72493 289.997 866.527)" fill="#99EDF9"/>
            <circle id="Ellipse 183" cx="29.1651" cy="840.228" r="4.5" transform="rotate(7.72493 29.1651 840.228)" fill="#99EDF9"/>
            <circle id="Ellipse 184" cx="93.2499" cy="962.956" r="4.5" transform="rotate(7.72493 93.2499 962.956)" fill="#99EDF9"/>
            <circle id="Ellipse 185" cx="24.8105" cy="924.407" r="4.5" transform="rotate(7.72493 24.8105 924.407)" fill="#99EDF9"/>
            <circle id="Ellipse 178" cx="683.126" cy="921.872" r="4.5" transform="rotate(7.72493 683.126 921.872)" fill="#99EDF9"/>
            <circle id="Ellipse 103" cx="99.274" cy="754.877" r="6.5" transform="rotate(7.72493 99.274 754.877)" fill="#99EDF9"/>
            <circle id="Ellipse 112" cx="77.2515" cy="820.513" r="6.5" transform="rotate(7.72493 77.2515 820.513)" fill="#99EDF9"/>
            <circle id="Ellipse 113" cx="76.0042" cy="904.104" r="6.5" transform="rotate(7.72493 76.0042 904.104)" fill="#99EDF9"/>
            <circle id="Ellipse 114" cx="200.104" cy="934.057" r="6.5" transform="rotate(7.72493 200.104 934.057)" fill="#99EDF9"/>
            <circle id="Ellipse 116" cx="179.839" cy="808.19" r="6.5" transform="rotate(7.72493 179.839 808.19)" fill="#99EDF9"/>
            <circle id="Ellipse 117" cx="358.937" cy="975.785" r="6.5" transform="rotate(7.72493 358.937 975.785)" fill="#99EDF9"/>
            <circle id="Ellipse 118" cx="457.038" cy="989.092" r="6.5" transform="rotate(7.72493 457.038 989.092)" fill="#99EDF9"/>
            <circle id="Ellipse 119" cx="430.043" cy="771.489" r="6.5" transform="rotate(7.72493 430.043 771.489)" fill="#99EDF9"/>
            <circle id="Ellipse 121" cx="272.045" cy="827.762" r="6.5" transform="rotate(7.72493 272.045 827.762)" fill="#99EDF9"/>
            <circle id="Ellipse 122" cx="380.443" cy="817.237" r="6.5" transform="rotate(7.72493 380.443 817.237)" fill="#99EDF9"/>
            <circle id="Ellipse 104" cx="100.102" cy="652.055" r="6.5" transform="rotate(7.72493 100.102 652.055)" fill="#99EDF9"/>
            <circle id="Ellipse 105" cx="6.42118" cy="583.844" r="6.5" transform="rotate(7.72493 6.42118 583.844)" fill="#99EDF9"/>
            <circle id="Ellipse 106" cx="142.178" cy="602.259" r="6.5" transform="rotate(7.72493 142.178 602.259)" fill="#99EDF9"/>
            <circle id="Ellipse 107" cx="21.9604" cy="521.366" r="6.5" transform="rotate(7.72493 21.9604 521.366)" fill="#99EDF9"/>
            <circle id="Ellipse 108" cx="106.914" cy="475.367" r="6.5" transform="rotate(7.72493 106.914 475.367)" fill="#99EDF9"/>
            <circle id="Ellipse 109" cx="108.446" cy="411.998" r="6.5" transform="rotate(7.72493 108.446 411.998)" fill="#99EDF9"/>
            <circle id="Ellipse 110" cx="221.252" cy="584.729" r="6.5" transform="rotate(7.72493 221.252 584.729)" fill="#99EDF9"/>
            <circle id="Ellipse 111" cx="287.694" cy="600.806" r="6.5" transform="rotate(7.72493 287.694 600.806)" fill="#99EDF9"/>
            </g>
        </g>
        <g id="second_container">
            <g id="second">
            <path id="Vector 10_2" d="M-603.978 504.523L-551.459 511.647M-551.459 511.647L-442.357 540.575M-551.459 511.647L-553.288 473.051L-513.824 423.91M-551.459 511.647L-539.168 569.827M-442.357 540.575L-362.288 593.821M-442.357 540.575L-388.967 440.846L-391.895 376.872M-362.288 593.821L-279.158 579.868M-362.288 593.821L-367.933 635.44L-325.788 685.56L-358.584 737.624M-279.158 579.868L-210.896 493.258M-279.158 579.868L-243.941 640.147M-210.896 493.258L-77.9171 468.912M-210.896 493.258L-278.084 441.759M-210.896 493.258L-203.772 440.739M-77.9171 468.912L-61.4623 555.913L-110.205 602.786L-83.4343 661.92M-77.9171 468.912L5.30176 517.539M-77.9171 468.912C-77.4332 465.344 -20.4001 399.513 8.05597 367.043L115.968 337.783M-77.9171 468.912L-123.85 413.232M-2.92135 704.632L-41.9191 679.663L-77.5924 674.824L-83.4343 661.92M-83.4343 661.92L-112.462 723.579M-112.462 723.579L-145.658 719.076M-112.462 723.579L-87.3376 746.666M5.30176 517.539L60.4247 512.906M5.30176 517.539L-1.62073 568.572L47.6551 607.044M47.6551 607.044L84.7553 623.682M47.6551 607.044L40.5982 659.068L66.9061 699.471M115.968 337.783L209.583 406.49M115.968 337.783L132.003 275.372M209.583 406.49L209.451 507.893M209.583 406.49L252.716 356.333M209.451 507.893L186.933 573.461M209.451 507.893L289.025 561.071M186.933 573.461L202.811 608.917L189.154 657.522L186.086 658.65M186.933 573.461L139.208 594.234M134.988 677.422L186.086 658.65M203.654 718.02L186.086 658.65M289.025 561.071L309.559 684.956M289.025 561.071L380.601 581.567M309.559 684.956L279.567 753.547M309.559 684.956L371.153 755.374M371.153 755.374L403.447 822.323M371.153 755.374L466.034 730.37M403.447 822.323L366.512 849.101M403.447 822.323L436.482 854.051L485.423 865.231L524.807 894.793M496.535 686.604L468.484 729.724L466.034 730.37M466.034 730.37L564.969 743.79M564.969 743.79L599.561 786.357M564.969 743.79L629.415 718.786L723.597 757.266L757.729 684.191M757.729 684.191L794.587 676.576M757.729 684.191L763.442 642.076M380.601 581.567L402.181 623.347M380.601 581.567L487.671 570.862M487.671 570.862L508.431 598.907M487.671 570.862L539.817 527.477M539.817 527.477L544.925 489.822M539.817 527.477L627.667 501.046M252.716 356.333L330.077 336.552M252.716 356.333L235.219 296.437M330.077 336.552L394.923 356.954M330.077 336.552L352.304 369.842L336.052 411.536L281.92 416.303M394.923 356.954L440.423 341.429M394.923 356.954L442.2 402.724M132.003 275.372L199.42 269.38L217.318 230.432M132.003 275.372L94.4433 213.764L34.408 213.694L7.30296 160.568M217.318 230.432L249.037 216.065M217.318 230.432L218.287 167.491M218.287 167.491L200.838 139.895M218.287 167.491L241.224 121.154M-123.85 413.232L-89.0547 353.871M-123.85 413.232L-163.527 382.116L-157.277 336.038M-89.0547 353.871L-61.6526 349.01M-89.0547 353.871L-112.43 288.132L-76.9571 264.687M-278.084 441.759L-257.382 419.339L-271.497 393.204L-235.741 259.8M-278.084 441.759L-342.394 447.164M-391.895 376.872L-352.398 342.368M-391.895 376.872L-411.105 310.185M-513.824 423.91L-468.854 423.45M-513.824 423.91L-511.68 367.183M-539.168 569.827L-487.979 638.834M-539.168 569.827L-481.124 588.297M-539.168 569.827L-588.591 610.554L-611.915 682.067M-487.979 638.834L-500.009 727.522M-487.979 638.834L-455.396 636.695M-243.941 640.147L-267.994 668.675M-243.941 640.147L-199.349 646.196L-202.729 708.307" stroke="#607BCC"/>
            <circle id="Ellipse 152" cx="7.49332" cy="367.471" r="4.5" transform="rotate(7.72493 7.49332 367.471)" fill="#607BCC"/>
            <circle id="Ellipse 153" cx="93.9479" cy="213.697" r="4.5" transform="rotate(7.72493 93.9479 213.697)" fill="#607BCC"/>
            <circle id="Ellipse 154" cx="35.3988" cy="213.828" r="4.5" transform="rotate(7.72493 35.3988 213.828)" fill="#607BCC"/>
            <circle id="Ellipse 155" cx="8.29386" cy="160.703" r="4.5" transform="rotate(7.72493 8.29386 160.703)" fill="#607BCC"/>
            <circle id="Ellipse 156_2" cx="199.555" cy="268.389" r="4.5" transform="rotate(7.72493 199.555 268.389)" fill="#607BCC"/>
            <circle id="Ellipse 157_2" cx="248.97" cy="216.561" r="4.5" transform="rotate(7.72493 248.97 216.561)" fill="#607BCC"/>
            <circle id="Ellipse 158_2" cx="200.905" cy="139.4" r="4.5" transform="rotate(7.72493 200.905 139.4)" fill="#607BCC"/>
            <circle id="Ellipse 159_2" cx="240.661" cy="121.582" r="4.5" transform="rotate(7.72493 240.661 121.582)" fill="#607BCC"/>
            <circle id="Ellipse 160_2" cx="235.966" cy="297.548" r="4.5" transform="rotate(7.72493 235.966 297.548)" fill="#607BCC"/>
            <circle id="Ellipse 161_2" cx="351.447" cy="368.716" r="4.5" transform="rotate(7.72493 351.447 368.716)" fill="#607BCC"/>
            <circle id="Ellipse 162_2" cx="335.624" cy="410.973" r="4.5" transform="rotate(7.72493 335.624 410.973)" fill="#607BCC"/>
            <circle id="Ellipse 163_2" cx="283.339" cy="417" r="4.5" transform="rotate(7.72493 283.339 417)" fill="#607BCC"/>
            <circle id="Ellipse 164_2" cx="440.915" cy="401.035" r="4.5" transform="rotate(7.72493 440.915 401.035)" fill="#607BCC"/>
            <circle id="Ellipse 165_2" cx="440.918" cy="341.496" r="4.5" transform="rotate(7.72493 440.918 341.496)" fill="#607BCC"/>
            <circle id="Ellipse 166_2" cx="201.82" cy="608.783" r="4.5" transform="rotate(7.72493 201.82 608.783)" fill="#607BCC"/>
            <circle id="Ellipse 167" cx="280.197" cy="752.623" r="4.5" transform="rotate(7.72493 280.197 752.623)" fill="#607BCC"/>
            <circle id="Ellipse 168" cx="366.017" cy="849.034" r="4.5" transform="rotate(7.72493 366.017 849.034)" fill="#607BCC"/>
            <circle id="Ellipse 169" cx="436.053" cy="853.488" r="4.5" transform="rotate(7.72493 436.053 853.488)" fill="#607BCC"/>
            <circle id="Ellipse 170" cx="486.775" cy="866.423" r="4.5" transform="rotate(7.72493 486.775 866.423)" fill="#607BCC"/>
            <circle id="Ellipse 171" cx="525.437" cy="893.869" r="4.5" transform="rotate(7.72493 525.437 893.869)" fill="#607BCC"/>
            <circle id="Ellipse 172_2" cx="496.963" cy="687.166" r="4.5" transform="rotate(7.72493 496.963 687.166)" fill="#607BCC"/>
            <circle id="Ellipse 173" cx="599.628" cy="785.862" r="4.5" transform="rotate(7.72493 599.628 785.862)" fill="#607BCC"/>
            <circle id="Ellipse 174_2" cx="628.99" cy="718.194" r="4.5" transform="rotate(7.72493 628.99 718.194)" fill="#607BCC"/>
            <circle id="Ellipse 175" cx="723.731" cy="756.275" r="4.5" transform="rotate(7.72493 723.731 756.275)" fill="#607BCC"/>
            <circle id="Ellipse 176_2" cx="758.855" cy="683.334" r="4.5" transform="rotate(7.72493 758.855 683.334)" fill="#607BCC"/>
            <circle id="Ellipse 177_2" cx="763.509" cy="641.581" r="4.5" transform="rotate(7.72493 763.509 641.581)" fill="#607BCC"/>
            <circle id="Ellipse 179_2" cx="627.171" cy="500.979" r="4.5" transform="rotate(7.72493 627.171 500.979)" fill="#607BCC"/>
            <circle id="Ellipse 180_2" cx="544.925" cy="489.822" r="4.5" transform="rotate(7.72493 544.925 489.822)" fill="#607BCC"/>
            <circle id="Ellipse 181_2" cx="507.935" cy="598.839" r="4.5" transform="rotate(7.72493 507.935 598.839)" fill="#607BCC"/>
            <circle id="Ellipse 182_2" cx="400.04" cy="620.533" r="4.5" transform="rotate(7.72493 400.04 620.533)" fill="#607BCC"/>
            <circle id="Ellipse 183_2" cx="139.208" cy="594.234" r="4.5" transform="rotate(7.72493 139.208 594.234)" fill="#607BCC"/>
            <circle id="Ellipse 184_2" cx="203.293" cy="716.962" r="4.5" transform="rotate(7.72493 203.293 716.962)" fill="#607BCC"/>
            <circle id="Ellipse 185_2" cx="134.853" cy="678.413" r="4.5" transform="rotate(7.72493 134.853 678.413)" fill="#607BCC"/>
            <circle id="Ellipse 186" cx="83.8316" cy="623.052" r="4.5" transform="rotate(7.72493 83.8316 623.052)" fill="#607BCC"/>
            <circle id="Ellipse 187" cx="40.6653" cy="658.572" r="4.5" transform="rotate(7.72493 40.6653 658.572)" fill="#607BCC"/>
            <circle id="Ellipse 188" cx="66.545" cy="698.412" r="4.5" transform="rotate(7.72493 66.545 698.412)" fill="#607BCC"/>
            <circle id="Ellipse 189" cx="-2.98861" cy="705.127" r="4.5" transform="rotate(7.72493 -2.98861 705.127)" fill="#607BCC"/>
            <circle id="Ellipse 191" cx="-0.562586" cy="568.211" r="4.5" transform="rotate(7.72493 -0.562586 568.211)" fill="#607BCC"/>
            <circle id="Ellipse 193" cx="58.5773" cy="511.647" r="4.5" transform="rotate(7.72493 58.5773 511.647)" fill="#607BCC"/>
            <circle id="Ellipse 178_2" cx="793.168" cy="675.879" r="4.5" transform="rotate(7.72493 793.168 675.879)" fill="#607BCC"/>
            <circle id="Ellipse 101" cx="6.15824" cy="518.664" r="6.5" transform="rotate(7.72493 6.15824 518.664)" fill="#607BCC"/>
            <circle id="Ellipse 102" cx="47.6551" cy="607.044" r="6.5" transform="rotate(7.72493 47.6551 607.044)" fill="#607BCC"/>
            <circle id="Ellipse 103_2" cx="209.317" cy="508.884" r="6.5" transform="rotate(7.72493 209.317 508.884)" fill="#607BCC"/>
            <circle id="Ellipse 112_2" cx="187.294" cy="574.519" r="6.5" transform="rotate(7.72493 187.294 574.519)" fill="#607BCC"/>
            <circle id="Ellipse 113_2" cx="186.047" cy="658.11" r="6.5" transform="rotate(7.72493 186.047 658.11)" fill="#607BCC"/>
            <circle id="Ellipse 114_2" cx="310.147" cy="688.063" r="6.5" transform="rotate(7.72493 310.147 688.063)" fill="#607BCC"/>
            <circle id="Ellipse 115" cx="371.581" cy="755.937" r="6.5" transform="rotate(7.72493 371.581 755.937)" fill="#607BCC"/>
            <circle id="Ellipse 116_2" cx="289.882" cy="562.197" r="6.5" transform="rotate(7.72493 289.882 562.197)" fill="#607BCC"/>
            <circle id="Ellipse 117_2" cx="468.979" cy="729.792" r="6.5" transform="rotate(7.72493 468.979 729.792)" fill="#607BCC"/>
            <circle id="Ellipse 118_2" cx="567.081" cy="743.099" r="6.5" transform="rotate(7.72493 567.081 743.099)" fill="#607BCC"/>
            <circle id="Ellipse 119_2" cx="540.086" cy="525.495" r="6.5" transform="rotate(7.72493 540.086 525.495)" fill="#607BCC"/>
            <circle id="Ellipse 120" cx="402.884" cy="822.751" r="6.5" transform="rotate(7.72493 402.884 822.751)" fill="#607BCC"/>
            <circle id="Ellipse 121_2" cx="382.088" cy="581.768" r="6.5" transform="rotate(7.72493 382.088 581.768)" fill="#607BCC"/>
            <circle id="Ellipse 122_2" cx="490.486" cy="571.243" r="6.5" transform="rotate(7.72493 490.486 571.243)" fill="#607BCC"/>
            <circle id="Ellipse 104_2" cx="210.145" cy="406.062" r="6.5" transform="rotate(7.72493 210.145 406.062)" fill="#607BCC"/>
            <circle id="Ellipse 105_2" cx="116.464" cy="337.85" r="6.5" transform="rotate(7.72493 116.464 337.85)" fill="#607BCC"/>
            <circle id="Ellipse 106_2" cx="252.22" cy="356.265" r="6.5" transform="rotate(7.72493 252.22 356.265)" fill="#607BCC"/>
            <circle id="Ellipse 107_2" cx="132.003" cy="275.372" r="6.5" transform="rotate(7.72493 132.003 275.372)" fill="#607BCC"/>
            <circle id="Ellipse 108_2" cx="216.957" cy="229.374" r="6.5" transform="rotate(7.72493 216.957 229.374)" fill="#607BCC"/>
            <circle id="Ellipse 109_2" cx="218.489" cy="166.005" r="6.5" transform="rotate(7.72493 218.489 166.005)" fill="#607BCC"/>
            <circle id="Ellipse 110_2" cx="331.294" cy="338.735" r="6.5" transform="rotate(7.72493 331.294 338.735)" fill="#607BCC"/>
            <circle id="Ellipse 111_2" cx="397.736" cy="354.812" r="6.5" transform="rotate(7.72493 397.736 354.812)" fill="#607BCC"/>
            </g>
        </g>
        <g id="third_container">
            <g id="third">
            <path id="Vector 10_3" d="M-374.955 801.406L-322.436 808.531M-322.436 808.531L-213.334 837.458M-322.436 808.531L-324.264 769.934L-284.801 720.793M-322.436 808.531L-310.144 866.711M-213.334 837.458L-133.264 890.704M-213.334 837.458L-159.944 737.73L-162.871 673.756M-133.264 890.704L-50.1345 876.752M-133.264 890.704L-138.91 932.323L-96.7644 982.443L-129.56 1034.51M-50.1345 876.752L18.127 790.141M-50.1345 876.752L-14.9174 937.031M18.127 790.141L151.106 765.795M18.127 790.141L-49.0605 738.643M18.127 790.141L25.2511 737.622M151.106 765.795L167.561 852.796L118.818 899.67L145.589 958.803M151.106 765.795L234.325 814.422M151.106 765.795C151.59 762.228 208.623 696.396 237.079 663.927L344.992 634.666M151.106 765.795L105.174 710.116M226.102 1001.51L187.104 976.546L151.431 971.707L145.589 958.803M145.589 958.803L116.561 1020.46M116.561 1020.46L83.3651 1015.96M116.561 1020.46L141.686 1043.55M234.325 814.422L289.448 809.79M234.325 814.422L227.403 865.455L276.678 903.928M276.678 903.928L313.779 920.566M276.678 903.928L269.622 955.951L295.929 996.354M344.992 634.666L438.606 703.373M344.992 634.666L361.026 572.255M438.606 703.373L438.475 804.776M438.606 703.373L481.739 653.216M438.475 804.776L415.957 870.344M438.475 804.776L518.049 857.955M415.957 870.344L431.835 905.8L418.178 954.406L415.109 955.533M415.957 870.344L368.231 891.118M364.011 974.305L415.109 955.533M432.677 1014.9L415.109 955.533M518.049 857.955L538.583 981.839M518.049 857.955L609.625 878.45M538.583 981.839L508.591 1050.43M538.583 981.839L600.176 1052.26M600.176 1052.26L632.47 1119.21M600.176 1052.26L695.058 1027.25M632.47 1119.21L595.536 1145.98M632.47 1119.21L665.505 1150.93L714.447 1162.11L753.83 1191.68M725.558 983.487L697.507 1026.61L695.058 1027.25M695.058 1027.25L793.992 1040.67M793.992 1040.67L828.584 1083.24M793.992 1040.67L858.438 1015.67L952.62 1054.15L986.753 981.074M986.753 981.074L1023.61 973.459M986.753 981.074L992.465 938.96M609.625 878.45L631.205 920.23M609.625 878.45L716.695 867.745M716.695 867.745L737.454 895.79M716.695 867.745L768.84 824.361M768.84 824.361L773.948 786.705M768.84 824.361L856.69 797.929M481.739 653.216L559.1 633.435M481.739 653.216L464.243 593.321M559.1 633.435L623.947 653.837M559.1 633.435L581.327 666.725L565.076 708.419L510.944 713.186M623.947 653.837L669.446 638.312M623.947 653.837L671.223 699.607M361.026 572.255L428.444 566.263L446.341 527.315M361.026 572.255L323.467 510.648L263.431 510.577L236.326 457.452M446.341 527.315L478.06 512.949M446.341 527.315L447.311 464.374M447.311 464.374L429.862 436.779M447.311 464.374L470.247 418.037M105.174 710.116L139.969 650.754M105.174 710.116L65.4962 679L71.7466 632.922M139.969 650.754L167.371 645.893M139.969 650.754L116.593 585.015L152.066 561.571M-49.0605 738.643L-28.3589 716.222L-42.474 690.087L-6.71768 556.683M-49.0605 738.643L-113.371 744.047M-162.871 673.756L-123.375 639.251M-162.871 673.756L-182.082 607.068M-284.801 720.793L-239.831 720.334M-284.801 720.793L-282.656 664.067M-310.144 866.711L-258.956 935.718M-310.144 866.711L-252.1 885.18M-310.144 866.711L-359.567 907.437L-382.892 978.951M-258.956 935.718L-270.986 1024.41M-258.956 935.718L-226.372 933.578M-14.9174 937.031L-38.9703 965.558M-14.9174 937.031L29.6742 943.08L26.2947 1005.19" stroke="#C292EB"/>
            <circle id="Ellipse 141" cx="29.1785" cy="943.014" r="4.5" transform="rotate(7.72493 29.1785 943.014)" fill="#C292EB"/>
            <circle id="Ellipse 143" cx="24.4867" cy="739.537" r="4.5" transform="rotate(7.72493 24.4867 739.537)" fill="#C292EB"/>
            <circle id="Ellipse 146" cx="66.0589" cy="678.571" r="4.5" transform="rotate(7.72493 66.0589 678.571)" fill="#C292EB"/>
            <circle id="Ellipse 147" cx="72.3765" cy="631.998" r="4.5" transform="rotate(7.72493 72.3765 631.998)" fill="#C292EB"/>
            <circle id="Ellipse 148" cx="168.496" cy="645.036" r="4.5" transform="rotate(7.72493 168.496 645.036)" fill="#C292EB"/>
            <circle id="Ellipse 149" cx="117.021" cy="585.578" r="4.5" transform="rotate(7.72493 117.021 585.578)" fill="#C292EB"/>
            <circle id="Ellipse 150" cx="151.638" cy="561.008" r="4.5" transform="rotate(7.72493 151.638 561.008)" fill="#C292EB"/>
            <circle id="Ellipse 152_2" cx="236.517" cy="664.355" r="4.5" transform="rotate(7.72493 236.517 664.355)" fill="#C292EB"/>
            <circle id="Ellipse 153_2" cx="322.971" cy="510.58" r="4.5" transform="rotate(7.72493 322.971 510.58)" fill="#C292EB"/>
            <circle id="Ellipse 154_2" cx="264.422" cy="510.711" r="4.5" transform="rotate(7.72493 264.422 510.711)" fill="#C292EB"/>
            <circle id="Ellipse 155_2" cx="237.317" cy="457.586" r="4.5" transform="rotate(7.72493 237.317 457.586)" fill="#C292EB"/>
            <circle id="Ellipse 156_3" cx="428.578" cy="565.272" r="4.5" transform="rotate(7.72493 428.578 565.272)" fill="#C292EB"/>
            <circle id="Ellipse 157_3" cx="477.993" cy="513.444" r="4.5" transform="rotate(7.72493 477.993 513.444)" fill="#C292EB"/>
            <circle id="Ellipse 158_3" cx="429.929" cy="436.283" r="4.5" transform="rotate(7.72493 429.929 436.283)" fill="#C292EB"/>
            <circle id="Ellipse 159_3" cx="469.685" cy="418.465" r="4.5" transform="rotate(7.72493 469.685 418.465)" fill="#C292EB"/>
            <circle id="Ellipse 160_3" cx="464.989" cy="594.431" r="4.5" transform="rotate(7.72493 464.989 594.431)" fill="#C292EB"/>
            <circle id="Ellipse 161_3" cx="580.471" cy="665.6" r="4.5" transform="rotate(7.72493 580.471 665.6)" fill="#C292EB"/>
            <circle id="Ellipse 162_3" cx="564.647" cy="707.856" r="4.5" transform="rotate(7.72493 564.647 707.856)" fill="#C292EB"/>
            <circle id="Ellipse 163_3" cx="512.363" cy="713.883" r="4.5" transform="rotate(7.72493 512.363 713.883)" fill="#C292EB"/>
            <circle id="Ellipse 164_3" cx="669.939" cy="697.919" r="4.5" transform="rotate(7.72493 669.939 697.919)" fill="#C292EB"/>
            <circle id="Ellipse 165_3" cx="669.942" cy="638.379" r="4.5" transform="rotate(7.72493 669.942 638.379)" fill="#C292EB"/>
            <circle id="Ellipse 166_3" cx="430.844" cy="905.666" r="4.5" transform="rotate(7.72493 430.844 905.666)" fill="#C292EB"/>
            <circle id="Ellipse 172_3" cx="725.986" cy="984.049" r="4.5" transform="rotate(7.72493 725.986 984.049)" fill="#C292EB"/>
            <circle id="Ellipse 176_3" cx="987.878" cy="980.217" r="4.5" transform="rotate(7.72493 987.878 980.217)" fill="#C292EB"/>
            <circle id="Ellipse 177_3" cx="992.533" cy="938.464" r="4.5" transform="rotate(7.72493 992.533 938.464)" fill="#C292EB"/>
            <circle id="Ellipse 179_3" cx="856.195" cy="797.862" r="4.5" transform="rotate(7.72493 856.195 797.862)" fill="#C292EB"/>
            <circle id="Ellipse 180_3" cx="773.948" cy="786.705" r="4.5" transform="rotate(7.72493 773.948 786.705)" fill="#C292EB"/>
            <circle id="Ellipse 181_3" cx="736.959" cy="895.723" r="4.5" transform="rotate(7.72493 736.959 895.723)" fill="#C292EB"/>
            <circle id="Ellipse 182_3" cx="629.063" cy="917.417" r="4.5" transform="rotate(7.72493 629.063 917.417)" fill="#C292EB"/>
            <circle id="Ellipse 183_3" cx="368.231" cy="891.117" r="4.5" transform="rotate(7.72493 368.231 891.117)" fill="#C292EB"/>
            <circle id="Ellipse 185_3" cx="363.877" cy="975.296" r="4.5" transform="rotate(7.72493 363.877 975.296)" fill="#C292EB"/>
            <circle id="Ellipse 186_2" cx="312.855" cy="919.936" r="4.5" transform="rotate(7.72493 312.855 919.936)" fill="#C292EB"/>
            <circle id="Ellipse 187_2" cx="269.689" cy="955.456" r="4.5" transform="rotate(7.72493 269.689 955.456)" fill="#C292EB"/>
            <circle id="Ellipse 188_2" cx="295.568" cy="995.296" r="4.5" transform="rotate(7.72493 295.568 995.296)" fill="#C292EB"/>
            <circle id="Ellipse 190" cx="187.239" cy="975.555" r="4.5" transform="rotate(7.72493 187.239 975.555)" fill="#C292EB"/>
            <circle id="Ellipse 191_2" cx="228.461" cy="865.094" r="4.5" transform="rotate(7.72493 228.461 865.094)" fill="#C292EB"/>
            <circle id="Ellipse 194" cx="166.705" cy="851.671" r="4.5" transform="rotate(7.72493 166.705 851.671)" fill="#C292EB"/>
            <circle id="Ellipse 195" cx="152.422" cy="971.842" r="4.5" transform="rotate(7.72493 152.422 971.842)" fill="#C292EB"/>
            <circle id="Ellipse 200" cx="118.684" cy="900.661" r="4.5" transform="rotate(7.72493 118.684 900.661)" fill="#C292EB"/>
            <circle id="Ellipse 193_2" cx="287.601" cy="808.53" r="4.5" transform="rotate(7.72493 287.601 808.53)" fill="#C292EB"/>
            <circle id="Ellipse 178_3" cx="1022.19" cy="972.762" r="4.5" transform="rotate(7.72493 1022.19 972.762)" fill="#C292EB"/>
            <circle id="Ellipse 96" cx="17.7659" cy="789.083" r="6.5" transform="rotate(7.72493 17.7659 789.083)" fill="#C292EB"/>
            <circle id="Ellipse 98" cx="151.241" cy="764.804" r="6.5" transform="rotate(7.72493 151.241 764.804)" fill="#C292EB"/>
            <circle id="Ellipse 99" cx="139.541" cy="650.191" r="6.5" transform="rotate(7.72493 139.541 650.191)" fill="#C292EB"/>
            <circle id="Ellipse 100" cx="104.317" cy="708.99" r="6.5" transform="rotate(7.72493 104.317 708.99)" fill="#C292EB"/>
            <circle id="Ellipse 101_2" cx="235.182" cy="815.548" r="6.5" transform="rotate(7.72493 235.182 815.548)" fill="#C292EB"/>
            <circle id="Ellipse 102_2" cx="276.678" cy="903.927" r="6.5" transform="rotate(7.72493 276.678 903.927)" fill="#C292EB"/>
            <circle id="Ellipse 192" cx="144.26" cy="957.615" r="6.5" transform="rotate(7.72493 144.26 957.615)" fill="#C292EB"/>
            <circle id="Ellipse 103_3" cx="438.34" cy="805.767" r="6.5" transform="rotate(7.72493 438.34 805.767)" fill="#C292EB"/>
            <circle id="Ellipse 112_3" cx="416.318" cy="871.402" r="6.5" transform="rotate(7.72493 416.318 871.402)" fill="#C292EB"/>
            <circle id="Ellipse 113_3" cx="415.07" cy="954.993" r="6.5" transform="rotate(7.72493 415.07 954.993)" fill="#C292EB"/>
            <circle id="Ellipse 114_3" cx="539.17" cy="984.946" r="6.5" transform="rotate(7.72493 539.17 984.946)" fill="#C292EB"/>
            <circle id="Ellipse 116_3" cx="518.905" cy="859.08" r="6.5" transform="rotate(7.72493 518.905 859.08)" fill="#C292EB"/>
            <circle id="Ellipse 119_3" cx="769.109" cy="822.379" r="6.5" transform="rotate(7.72493 769.109 822.379)" fill="#C292EB"/>
            <circle id="Ellipse 121_3" cx="611.111" cy="878.652" r="6.5" transform="rotate(7.72493 611.111 878.652)" fill="#C292EB"/>
            <circle id="Ellipse 122_3" cx="719.51" cy="868.127" r="6.5" transform="rotate(7.72493 719.51 868.127)" fill="#C292EB"/>
            <circle id="Ellipse 104_3" cx="439.169" cy="702.945" r="6.5" transform="rotate(7.72493 439.169 702.945)" fill="#C292EB"/>
            <circle id="Ellipse 105_3" cx="345.487" cy="634.734" r="6.5" transform="rotate(7.72493 345.487 634.734)" fill="#C292EB"/>
            <circle id="Ellipse 106_3" cx="481.244" cy="653.149" r="6.5" transform="rotate(7.72493 481.244 653.149)" fill="#C292EB"/>
            <circle id="Ellipse 107_3" cx="361.027" cy="572.255" r="6.5" transform="rotate(7.72493 361.027 572.255)" fill="#C292EB"/>
            <circle id="Ellipse 108_3" cx="445.98" cy="526.257" r="6.5" transform="rotate(7.72493 445.98 526.257)" fill="#C292EB"/>
            <circle id="Ellipse 109_3" cx="447.512" cy="462.888" r="6.5" transform="rotate(7.72493 447.512 462.888)" fill="#C292EB"/>
            <circle id="Ellipse 110_3" cx="560.318" cy="635.619" r="6.5" transform="rotate(7.72493 560.318 635.619)" fill="#C292EB"/>
            <circle id="Ellipse 111_3" cx="626.76" cy="651.695" r="6.5" transform="rotate(7.72493 626.76 651.695)" fill="#C292EB"/>
            </g>
        </g>
    </g>
</svg>
